<mxfile host="app.diagrams.net" modified="2023-03-23T12:09:50.810Z" agent="5.0 (Windows)" etag="KWDkNtVq0jALLtmfa8XS" version="21.0.10" type="github">
  <diagram id="C5RBs43oDa-KdzZeNtuy" name="Page-1">
    <mxGraphModel dx="2022" dy="652" grid="1" gridSize="10" guides="1" tooltips="1" connect="1" arrows="1" fold="1" page="1" pageScale="1" pageWidth="827" pageHeight="1169" math="0" shadow="0">
      <root>
        <mxCell id="WIyWlLk6GJQsqaUBKTNV-0" />
        <mxCell id="WIyWlLk6GJQsqaUBKTNV-1" parent="WIyWlLk6GJQsqaUBKTNV-0" />
        <mxCell id="RxZ73lJwsgdjendpPMP5-2" value="" style="edgeStyle=orthogonalEdgeStyle;rounded=0;orthogonalLoop=1;jettySize=auto;html=1;" edge="1" parent="WIyWlLk6GJQsqaUBKTNV-1" source="RxZ73lJwsgdjendpPMP5-0" target="RxZ73lJwsgdjendpPMP5-1">
          <mxGeometry relative="1" as="geometry" />
        </mxCell>
        <mxCell id="RxZ73lJwsgdjendpPMP5-0" value="START" style="ellipse;whiteSpace=wrap;html=1;" vertex="1" parent="WIyWlLk6GJQsqaUBKTNV-1">
          <mxGeometry x="110" y="100" width="120" height="80" as="geometry" />
        </mxCell>
        <mxCell id="RxZ73lJwsgdjendpPMP5-4" value="" style="edgeStyle=orthogonalEdgeStyle;rounded=0;orthogonalLoop=1;jettySize=auto;html=1;" edge="1" parent="WIyWlLk6GJQsqaUBKTNV-1" source="RxZ73lJwsgdjendpPMP5-1" target="RxZ73lJwsgdjendpPMP5-3">
          <mxGeometry relative="1" as="geometry" />
        </mxCell>
        <mxCell id="RxZ73lJwsgdjendpPMP5-1" value="&lt;div&gt;pobierz a&lt;/div&gt;" style="whiteSpace=wrap;html=1;" vertex="1" parent="WIyWlLk6GJQsqaUBKTNV-1">
          <mxGeometry x="110" y="270" width="120" height="60" as="geometry" />
        </mxCell>
        <mxCell id="RxZ73lJwsgdjendpPMP5-6" value="" style="edgeStyle=orthogonalEdgeStyle;rounded=0;orthogonalLoop=1;jettySize=auto;html=1;" edge="1" parent="WIyWlLk6GJQsqaUBKTNV-1" source="RxZ73lJwsgdjendpPMP5-3" target="RxZ73lJwsgdjendpPMP5-5">
          <mxGeometry relative="1" as="geometry" />
        </mxCell>
        <mxCell id="RxZ73lJwsgdjendpPMP5-7" value="TAK" style="edgeLabel;html=1;align=center;verticalAlign=middle;resizable=0;points=[];" vertex="1" connectable="0" parent="RxZ73lJwsgdjendpPMP5-6">
          <mxGeometry x="-0.254" y="-2" relative="1" as="geometry">
            <mxPoint as="offset" />
          </mxGeometry>
        </mxCell>
        <mxCell id="RxZ73lJwsgdjendpPMP5-9" value="" style="edgeStyle=orthogonalEdgeStyle;rounded=0;orthogonalLoop=1;jettySize=auto;html=1;" edge="1" parent="WIyWlLk6GJQsqaUBKTNV-1" source="RxZ73lJwsgdjendpPMP5-3" target="RxZ73lJwsgdjendpPMP5-8">
          <mxGeometry relative="1" as="geometry" />
        </mxCell>
        <mxCell id="RxZ73lJwsgdjendpPMP5-10" value="NIE" style="edgeLabel;html=1;align=center;verticalAlign=middle;resizable=0;points=[];" vertex="1" connectable="0" parent="RxZ73lJwsgdjendpPMP5-9">
          <mxGeometry x="-0.1556" relative="1" as="geometry">
            <mxPoint as="offset" />
          </mxGeometry>
        </mxCell>
        <mxCell id="RxZ73lJwsgdjendpPMP5-3" value="a mod 2 = 0" style="rhombus;whiteSpace=wrap;html=1;" vertex="1" parent="WIyWlLk6GJQsqaUBKTNV-1">
          <mxGeometry x="130" y="400" width="80" height="80" as="geometry" />
        </mxCell>
        <mxCell id="RxZ73lJwsgdjendpPMP5-5" value="Liczba parzysta" style="whiteSpace=wrap;html=1;" vertex="1" parent="WIyWlLk6GJQsqaUBKTNV-1">
          <mxGeometry x="-50" y="410" width="120" height="60" as="geometry" />
        </mxCell>
        <mxCell id="RxZ73lJwsgdjendpPMP5-8" value="Liczba nieparzysta" style="whiteSpace=wrap;html=1;" vertex="1" parent="WIyWlLk6GJQsqaUBKTNV-1">
          <mxGeometry x="270" y="410" width="120" height="60" as="geometry" />
        </mxCell>
        <mxCell id="RxZ73lJwsgdjendpPMP5-11" value="" style="endArrow=classic;html=1;rounded=0;exitX=0.5;exitY=1;exitDx=0;exitDy=0;entryX=1;entryY=0.5;entryDx=0;entryDy=0;" edge="1" parent="WIyWlLk6GJQsqaUBKTNV-1" source="RxZ73lJwsgdjendpPMP5-8" target="RxZ73lJwsgdjendpPMP5-12">
          <mxGeometry width="50" height="50" relative="1" as="geometry">
            <mxPoint x="305" y="550" as="sourcePoint" />
            <mxPoint x="210" y="640" as="targetPoint" />
            <Array as="points">
              <mxPoint x="330" y="640" />
            </Array>
          </mxGeometry>
        </mxCell>
        <mxCell id="RxZ73lJwsgdjendpPMP5-12" value="STOP" style="ellipse;whiteSpace=wrap;html=1;" vertex="1" parent="WIyWlLk6GJQsqaUBKTNV-1">
          <mxGeometry x="110" y="600" width="120" height="80" as="geometry" />
        </mxCell>
        <mxCell id="RxZ73lJwsgdjendpPMP5-13" value="" style="endArrow=classic;html=1;rounded=0;exitX=0.456;exitY=1.022;exitDx=0;exitDy=0;exitPerimeter=0;entryX=0;entryY=0.5;entryDx=0;entryDy=0;" edge="1" parent="WIyWlLk6GJQsqaUBKTNV-1" source="RxZ73lJwsgdjendpPMP5-5" target="RxZ73lJwsgdjendpPMP5-12">
          <mxGeometry width="50" height="50" relative="1" as="geometry">
            <mxPoint x="10" y="480" as="sourcePoint" />
            <mxPoint x="5" y="670" as="targetPoint" />
            <Array as="points">
              <mxPoint y="640" />
            </Array>
          </mxGeometry>
        </mxCell>
      </root>
    </mxGraphModel>
  </diagram>
</mxfile>
